<?xml version="1.0" standalone="no"?>
<!DOCTYPE svg PUBLIC "-//W3C//DTD SVG 20010904//EN"
 "http://www.w3.org/TR/2001/REC-SVG-20010904/DTD/svg10.dtd">
<svg version="1.0" xmlns="http://www.w3.org/2000/svg"
 width="305.000000pt" height="305.000000pt" viewBox="0 0 305.000000 305.000000"
 preserveAspectRatio="xMidYMid meet">
<metadata>
Created by potrace 1.14, written by Peter Selinger 2001-2017
</metadata>
<g transform="translate(0.000000,305.000000) scale(0.100000,-0.100000)"
fill="#000000" stroke="none">
<path d="M951 2594 c-156 -41 -280 -143 -351 -287 -22 -45 -44 -104 -48 -132
-4 -27 -7 -313 -7 -635 2 -630 1 -625 55 -731 31 -60 66 -105 124 -159 52 -49
147 -100 184 -100 37 0 81 31 92 65 5 16 8 117 7 223 -1 105 2 192 6 192 5 0
22 -9 38 -21 16 -11 29 -18 29 -14 0 3 19 -7 43 -23 23 -16 76 -49 117 -73 41
-24 80 -47 85 -52 19 -15 410 -250 463 -279 58 -30 152 -55 220 -57 127 -3
277 60 372 158 74 75 104 122 136 211 l27 75 1 585 c0 322 -3 603 -7 626 -8
54 -43 147 -67 177 -11 14 -20 29 -20 34 0 21 -126 136 -187 171 -33 18 -97
18 -123 -1 -40 -28 -46 -61 -45 -269 0 -109 -3 -198 -7 -198 -6 0 -70 38 -320
189 -15 9 -82 50 -149 91 -68 41 -141 86 -163 99 -23 12 -48 29 -56 36 -18 15
-146 80 -177 89 -80 24 -201 29 -272 10z m257 -620 c98 -59 200 -122 229 -140
28 -19 56 -34 62 -34 6 0 11 -4 11 -10 0 -5 4 -10 9 -10 8 0 268 -153 391
-230 8 -5 53 -32 100 -60 l85 -52 1 -209 c0 -124 -4 -209 -9 -209 -6 0 -38 18
-73 40 -35 22 -66 40 -70 40 -3 0 -37 20 -75 45 -38 25 -72 45 -74 45 -3 0
-35 19 -73 43 -87 54 -91 56 -187 113 -44 26 -102 61 -130 79 -204 131 -324
195 -365 195 -16 0 -30 3 -30 8 -1 4 -2 109 -3 235 -2 186 0 226 11 222 8 -3
93 -53 190 -111z"/>
</g>
</svg>
